<?xml version="1.0" standalone="no"?><!DOCTYPE svg PUBLIC "-//W3C//DTD SVG 1.1//EN" "http://www.w3.org/Graphics/SVG/1.1/DTD/svg11.dtd"><svg t="1706180850923" class="icon" viewBox="0 0 1024 1024" version="1.1" xmlns="http://www.w3.org/2000/svg" p-id="7535" xmlns:xlink="http://www.w3.org/1999/xlink" width="16" height="16"><path d="M0 512.007221a511.992418 511.992418 0 1 1 511.631351 511.992418A512.353484 512.353484 0 0 1 0 512.007221z m727.188102 207.974353l-62.464519-65.714118a169.340228 169.340228 0 0 1-125.651172 55.965321c-102.903977 0-166.090629-75.462916-166.090629-205.807954s70.046917-202.197288 170.423429-202.197288a153.814365 153.814365 0 0 1 110.486375 48.021856l62.464519-68.963718a252.74661 252.74661 0 0 0-175.117294-72.213317c-158.508231 0-284.159402 111.569575-284.159402 299.685266s120.235173 296.435666 275.493804 296.435666a249.858077 249.858077 0 0 0 194.614889-85.211714z" fill="#dd6572" p-id="7536"></path></svg>