<?xml version="1.0" standalone="no"?><!DOCTYPE svg PUBLIC "-//W3C//DTD SVG 1.1//EN" "http://www.w3.org/Graphics/SVG/1.1/DTD/svg11.dtd"><svg t="1706180250800" class="icon" viewBox="0 0 1024 1024" version="1.1" xmlns="http://www.w3.org/2000/svg" p-id="1020" width="16" height="16" xmlns:xlink="http://www.w3.org/1999/xlink"><path d="M0 512.007221a511.992418 511.992418 0 1 1 511.631351 511.992418A512.353484 512.353484 0 0 1 0 512.007221z m739.1033 226.388749v-257.079408h-214.112485v81.239981h112.652774V686.402382a144.426634 144.426634 0 0 1-87.73918 25.274661c-120.235173 0-180.533293-77.629316-180.533292-203.641554s72.213317-205.446887 180.533292-205.446887A155.980765 155.980765 0 0 1 667.973182 350.610458l62.46452-68.963718a259.245808 259.245808 0 0 0-182.699692-72.213317C380.564181 207.989157 252.74661 319.558731 252.74661 507.674422s123.484772 296.435666 288.853268 296.435667a311.239396 311.239396 0 0 0 197.503422-65.714119z" fill="#36ab60" p-id="1021"></path></svg>